<svg width="359" height="1116" viewBox="0 0 359 1116" fill="none" xmlns="http://www.w3.org/2000/svg">
<g clip-path="url(#clip0_10952_419)">
<path d="M125.264 2.24512H240.019C300.068 2.24512 348.754 43.6982 348.754 94.8522C348.754 146.006 300.068 187.459 240.019 187.459H125.264" fill="#FAF9F6"/>
<path d="M125.264 2.24512H240.019C300.068 2.24512 348.754 43.6982 348.754 94.8522C348.754 146.006 300.068 187.459 240.019 187.459H125.264" stroke="#404040" stroke-width="10" stroke-miterlimit="10"/>
<path d="M125.264 187.505H240.019C300.068 187.505 348.754 228.958 348.754 280.112C348.754 331.266 300.068 372.719 240.019 372.719H125.264" fill="#E5E5F4"/>
<path d="M125.264 187.505H240.019C300.068 187.505 348.754 228.958 348.754 280.112C348.754 331.266 300.068 372.719 240.019 372.719H125.264" stroke="#404040" stroke-width="10" stroke-miterlimit="10"/>
<path d="M125.264 372.764H240.019C300.068 372.764 348.754 414.217 348.754 465.371C348.754 516.525 300.068 557.978 240.019 557.978H125.264" fill="#FAF9F6"/>
<path d="M125.264 372.764H240.019C300.068 372.764 348.754 414.217 348.754 465.371C348.754 516.525 300.068 557.978 240.019 557.978H125.264" stroke="#404040" stroke-width="10" stroke-miterlimit="10"/>
<path d="M124.995 557.978H239.749C299.798 557.978 348.485 599.431 348.485 650.585C348.485 701.738 299.798 743.192 239.749 743.192H124.995" fill="#E5E5F4"/>
<path d="M124.995 557.978H239.749C299.798 557.978 348.485 599.431 348.485 650.585C348.485 701.738 299.798 743.192 239.749 743.192H124.995" stroke="#404040" stroke-width="10" stroke-miterlimit="10"/>
<path d="M8.36727e-05 2.24512H115.024C175.073 2.24512 223.76 43.6982 223.76 94.8522C223.76 146.006 175.073 187.459 115.024 187.459H8.36727e-05" fill="#E5E5F4"/>
<path d="M8.36727e-05 2.24512H115.024C175.073 2.24512 223.76 43.6982 223.76 94.8522C223.76 146.006 175.073 187.459 115.024 187.459H8.36727e-05" stroke="#404040" stroke-width="10" stroke-miterlimit="10"/>
<path d="M8.36727e-05 187.505H115.024C175.073 187.505 223.76 228.958 223.76 280.112C223.76 331.266 175.073 372.719 115.024 372.719H8.36727e-05" fill="#FAF9F6"/>
<path d="M8.36727e-05 187.505H115.024C175.073 187.505 223.76 228.958 223.76 280.112C223.76 331.266 175.073 372.719 115.024 372.719H8.36727e-05" stroke="#404040" stroke-width="10" stroke-miterlimit="10"/>
<path d="M8.36727e-05 372.764H115.024C175.073 372.764 223.76 414.217 223.76 465.371C223.76 516.525 175.073 557.978 115.024 557.978H8.36727e-05" fill="#E5E5F4"/>
<path d="M8.36727e-05 372.764H115.024C175.073 372.764 223.76 414.217 223.76 465.371C223.76 516.525 175.073 557.978 115.024 557.978H8.36727e-05" stroke="#404040" stroke-width="10" stroke-miterlimit="10"/>
<path d="M2.32118e-05 557.978H114.754C174.804 557.978 223.49 599.431 223.49 650.585C223.49 701.738 174.804 743.192 114.754 743.192H2.32118e-05" fill="#FFCDD5"/>
<path d="M2.32118e-05 557.978H114.754C174.804 557.978 223.49 599.431 223.49 650.585C223.49 701.738 174.804 743.192 114.754 743.192H2.32118e-05" stroke="#404040" stroke-width="10" stroke-miterlimit="10"/>
<path d="M124.995 743.236H239.749C299.798 743.236 348.485 784.689 348.485 835.843C348.485 886.997 299.798 928.45 239.749 928.45H124.995" fill="#FAF9F6"/>
<path d="M124.995 743.236H239.749C299.798 743.236 348.485 784.689 348.485 835.843C348.485 886.997 299.798 928.45 239.749 928.45H124.995" stroke="#404040" stroke-width="10" stroke-miterlimit="10"/>
<path d="M2.32118e-05 743.236H114.754C174.804 743.236 223.49 784.689 223.49 835.843C223.49 886.997 174.804 928.45 114.754 928.45H2.32118e-05" fill="#E5E5F4"/>
<path d="M2.32118e-05 743.236H114.754C174.804 743.236 223.49 784.689 223.49 835.843C223.49 886.997 174.804 928.45 114.754 928.45H2.32118e-05" stroke="#404040" stroke-width="10" stroke-miterlimit="10"/>
<path d="M124.995 928.495H239.749C299.798 928.495 348.485 969.948 348.485 1021.1C348.485 1072.26 299.798 1113.71 239.749 1113.71H124.995" fill="#FFCDD5"/>
<path d="M124.995 928.495H239.749C299.798 928.495 348.485 969.948 348.485 1021.1C348.485 1072.26 299.798 1113.71 239.749 1113.71H124.995" stroke="#404040" stroke-width="10" stroke-miterlimit="10"/>
<path d="M2.32118e-05 927.598H114.754C174.804 927.598 223.49 969.051 223.49 1020.2C223.49 1071.36 174.804 1112.81 114.754 1112.81H2.32118e-05" fill="#FAF9F6"/>
<path d="M2.32118e-05 927.598H114.754C174.804 927.598 223.49 969.051 223.49 1020.2C223.49 1071.36 174.804 1112.81 114.754 1112.81H2.32118e-05" stroke="#404040" stroke-width="10" stroke-miterlimit="10"/>
</g>
<defs>
<clipPath id="clip0_10952_419">
<rect width="359" height="1116" fill="white" transform="matrix(-1 0 0 1 359 0)"/>
</clipPath>
</defs>
</svg>
