<svg width="668" height="668" viewBox="0 0 668 668" fill="none" xmlns="http://www.w3.org/2000/svg">
<circle cx="333.9" cy="333.9" r="333.9" fill="#FAF9F6"/>
<circle cx="333.9" cy="333.9" r="287.7" fill="#F2F0EA"/>
<circle cx="333.9" cy="333.901" r="202.3" fill="#E5E0D4"/>
<path d="M310.383 366.116C318.049 355.147 335.261 360.155 335.844 373.525L341.402 500.804C341.532 503.788 340.704 506.737 339.039 509.218L262.931 622.585C255.345 633.884 237.728 628.81 237.314 615.207L233.243 481.339C233.151 478.326 234.035 475.364 235.761 472.893L310.383 366.116ZM336.332 369.077C334.621 356.157 349.942 348.114 359.605 356.859L459.681 447.433C462.086 449.61 463.661 452.555 464.135 455.764L484.323 592.167C486.266 605.3 470.546 613.51 460.879 604.411L357.83 507.416C355.483 505.207 353.97 502.255 353.547 499.059L336.332 369.077ZM296.037 342.028C309.058 339.676 317.774 355.033 309.078 365.006L226.04 460.233C223.954 462.625 221.118 464.237 217.997 464.806L78.238 490.262C64.9775 492.677 56.2984 476.796 65.4919 466.939L155.726 370.202C157.786 367.994 160.504 366.511 163.475 365.974L296.037 342.028ZM509.818 326.36C512.857 326.257 515.847 327.145 518.336 328.891L623.422 402.612C634.227 410.192 629.5 427.144 616.332 428.041L482.358 437.163C479.151 437.381 475.966 436.489 473.339 434.637L362.625 356.558C351.658 348.824 356.804 331.584 370.216 331.126L509.818 326.36ZM182.864 229.47C186.36 229.104 189.866 230.067 192.685 232.167L304.031 315.115C314.447 322.875 309.598 339.406 296.64 340.308L162.349 349.663C159.209 349.882 156.087 349.036 153.487 347.262L39.237 269.316C28.468 261.969 32.7047 245.184 45.6706 243.827L182.864 229.47ZM587.336 179.478C600.314 177.115 609.059 192.372 600.462 202.377L513.676 303.372C511.498 305.907 508.483 307.579 505.178 308.086L368.514 329.026C355.277 331.054 347.02 315.125 356.308 305.477L451.167 206.955C453.204 204.839 455.854 203.418 458.744 202.891L587.336 179.478ZM175.875 85.5389C173.726 72.4855 189.21 64.0094 199.049 72.8534L297.404 161.268C299.734 163.363 301.294 166.178 301.835 169.264L324.484 298.489C326.79 311.649 311.109 320.253 301.248 311.238L200.979 219.573C198.66 217.453 197.122 214.615 196.612 211.515L175.875 85.5389ZM402.103 42.4686C409.679 31.8679 426.358 36.4561 427.445 49.4403L439.147 189.179C439.439 192.666 438.414 196.136 436.275 198.905L351.305 308.909C343.444 319.086 327.172 314.169 326.261 301.342L316.758 167.429C316.527 164.178 317.437 160.949 319.332 158.298L402.103 42.4686Z" fill="#FAF9F6"/>
</svg>
