<svg width="548" height="1116" viewBox="0 0 548 1116" fill="none" xmlns="http://www.w3.org/2000/svg">
<g clip-path="url(#clip0_10952_495)">
<path d="M252.437 1116H203.243C90.9907 1116 0 1022.9 0 908.05V857.717L252.437 1116Z" fill="black"/>
<path d="M252.437 1116V1065.67C252.437 950.815 161.446 857.717 49.1936 857.717H0L252.437 1116Z" fill="#FAF9F6"/>
<path d="M548 857.562V907.895C548 1022.75 457.009 1115.85 344.757 1115.85H295.563L548 857.562Z" fill="#E90130"/>
<path d="M548 857.562H498.806C386.554 857.562 295.563 950.66 295.563 1065.51V1115.85L548 857.562Z" fill="#FAF9F6"/>
<path d="M252.437 828.367H203.243C90.9907 828.367 0 735.269 0 620.416V570.083L252.437 828.367Z" fill="#616290"/>
<path d="M252.437 828.367V778.034C252.437 663.181 161.446 570.083 49.1936 570.083H0L252.437 828.367Z" fill="#FAF9F6"/>
<path d="M548 569.93V620.263C548 735.116 457.009 828.214 344.757 828.214H295.563L548 569.93Z" fill="#E90130"/>
<path d="M548 569.93H498.806C386.554 569.93 295.563 663.028 295.563 777.881V828.214L548 569.93Z" fill="black"/>
<path d="M252.437 540.708H203.243C90.9907 540.708 0 447.61 0 332.783V282.45L252.437 540.734V540.708Z" fill="black"/>
<path d="M252.437 540.708V490.375C252.437 375.522 161.446 282.424 49.1936 282.424H0L252.437 540.708Z" fill="#E90130"/>
<path d="M548 282.271V332.604C548 447.457 457.009 540.555 344.757 540.555H295.563L548 282.271Z" fill="#FAF9F6"/>
<path d="M548 282.271H498.806C386.554 282.271 295.563 375.369 295.563 490.222V540.555L548 282.271Z" fill="#FAF9F6"/>
<path d="M252.437 258.438H203.243C90.9907 258.438 0 165.34 0 50.4869V0.153809L252.437 258.438Z" fill="#E90130"/>
<path d="M252.437 258.438V208.105C252.437 93.2522 161.446 0.153809 49.1936 0.153809H0L252.437 258.438Z" fill="#E90130"/>
<path d="M548 0V50.3331C548 165.186 457.009 258.284 344.757 258.284H295.563L548 0Z" fill="#FAF9F6"/>
<path d="M548 0H498.806C386.554 0 295.563 93.0983 295.563 207.951V258.284L548 0Z" fill="#616290"/>
</g>
<defs>
<clipPath id="clip0_10952_495">
<rect width="548" height="1116" fill="white"/>
</clipPath>
</defs>
</svg>
