<svg width="1527" height="1134" viewBox="0 0 1527 1134" fill="none" xmlns="http://www.w3.org/2000/svg">
<path d="M1527 1133.03H1350.59L1525.29 958.33L1521.05 954.088L1342.11 1133.03H1179.97L1527 788.903V1133.03ZM513.7 1086.55V1133.03H201.354L22.4111 954.088L18.1689 958.33L192.868 1133.03H0V579.582L513.7 1086.55ZM1205.18 574.53L1035.49 744.217V576.829H1029.49V1133.03H907.511V576.829H901.511V1133.03H778.24V576.829H772.24V1133.03H648.97V576.829H642.97V1133.03H519.7V1092.47L524.652 1097.36L528.867 1093.08L519.7 1084.04V576.829H513.7V749.978L338.252 574.53H1205.18ZM1527 780.454L1171.45 1133.03H1035.49V1093.01L1035.7 1093.22L1037.83 1095.34L1525.29 606.369L1521.05 602.133L1035.49 1089.18V913.062L1036.37 913.977L1390.88 574.53H1527V780.454ZM15.707 776.199L371.237 1128.73L375.462 1124.47L19.9326 771.939L15.707 776.199ZM152.536 574.53L513.085 922.967L513.7 922.33V1078.12L3.42188 574.53H152.536ZM329.768 574.53L511.818 756.582L513.7 754.7V915.217L161.17 574.53H329.768ZM1382.2 574.53L1035.49 906.507V752.703L1213.66 574.53H1382.2ZM1527 80.2412H1011.55V4.01074H1005.55V37.4199L521.92 522.537V348.221L878.265 7.01855L874.115 2.68457L521.92 339.914V186.062L699.812 8.1709L695.568 3.92871L521.92 177.577V4.01074H515.92V183.577L515.749 183.748L515.92 183.919V568.53H392.65V4.01074H386.65V568.53H263.381V4.01074H257.381V568.53H154.962L154.705 568.282L154.466 568.53H134.11V2.00098H128.11V568.53H1.7998V572.929L0 571.152V568.461H4.83984V2.00098H0V0.000976562H1527V80.2412ZM1527 568.53H1388.98L1388.74 568.272L1388.47 568.53H1011.55V474.05H1527V568.53ZM1005.55 221.688L655.762 568.53H521.92V528.467L523.205 529.748L1005.55 45.9189V221.688ZM1005.55 389.378L826.609 568.319L826.82 568.53H664.283L1005.55 230.138L1005.55 389.378ZM1005.55 568.53H834.884L1005.55 397.864V568.53ZM1527 468.05H1011.55V344.78H1527V468.05ZM1527 338.78H1011.55V224.188L1012.13 223.611L1011.55 223.024V215.511H1527V338.78ZM1527 209.511H1011.55V86.2412H1527V209.511Z" fill="#B1B2DC"/>
</svg>
