<svg width="553" height="1120" viewBox="0 0 553 1120" fill="none" xmlns="http://www.w3.org/2000/svg">
<g clip-path="url(#clip0_10952_374)">
<path d="M108.007 760.515C103.35 754.668 103.361 746.375 108.035 740.541L243.135 571.92C247.841 566.046 247.817 557.686 243.077 551.839L108.233 385.516C103.462 379.63 103.473 371.205 108.259 365.331L243.057 199.938C247.81 194.107 247.858 185.753 243.175 179.867L104.847 6.03723C101.811 2.22258 97.2023 0 92.3272 0H33.174C19.7782 0 12.3132 15.4778 20.6529 25.961L143.092 179.868C147.774 185.754 147.725 194.106 142.975 199.936L8.21288 365.333C3.42798 371.206 3.41712 379.629 8.18687 385.514L142.994 551.841C147.733 557.687 147.757 566.045 143.052 571.918L7.98885 740.543C3.31661 746.376 3.30504 754.666 7.96099 760.513L142.955 930.018C147.7 935.975 147.587 944.452 142.686 950.282L22.1078 1093.7C13.3573 1104.11 20.7568 1120 34.3548 1120H92.5924C97.3158 1120 101.798 1117.91 104.838 1114.3L242.768 950.283C247.672 944.453 247.784 935.974 243.037 930.016L108.007 760.515Z" fill="#A99D8F"/>
<path d="M258.007 760.515C253.35 754.668 253.361 746.375 258.035 740.541L393.135 571.92C397.841 566.046 397.817 557.686 393.077 551.839L258.233 385.516C253.462 379.63 253.473 371.205 258.259 365.331L393.057 199.938C397.81 194.107 397.858 185.753 393.175 179.867L254.847 6.03723C251.811 2.22258 247.202 0 242.327 0H183.18C169.783 0 162.318 15.48 170.66 25.9628L293.132 179.867C297.816 185.753 297.767 194.107 293.015 199.938L158.217 365.331C153.43 371.205 153.419 379.63 158.191 385.516L293.034 551.839C297.774 557.686 297.798 566.046 293.092 571.92L157.993 740.541C153.318 746.375 153.307 754.668 157.965 760.515L292.995 930.016C297.741 935.974 297.629 944.453 292.726 950.283L172.116 1093.7C163.363 1104.11 170.762 1120 184.361 1120H242.592C247.316 1120 251.798 1117.91 254.838 1114.3L392.768 950.283C397.672 944.453 397.784 935.974 393.037 930.016L258.007 760.515Z" fill="#CBBFB0"/>
<path d="M410.007 760.515C405.35 754.668 405.361 746.375 410.035 740.541L545.135 571.92C549.841 566.046 549.817 557.686 545.077 551.839L410.233 385.516C405.462 379.63 405.473 371.205 410.259 365.331L545.057 199.938C549.81 194.107 549.858 185.753 545.175 179.867L406.847 6.03723C403.811 2.22258 399.202 0 394.327 0H335.18C321.783 0 314.318 15.48 322.66 25.9628L445.132 179.867C449.816 185.753 449.767 194.107 445.015 199.938L310.217 365.331C305.43 371.205 305.419 379.63 310.191 385.516L445.034 551.839C449.774 557.686 449.799 566.046 445.092 571.92L309.993 740.541C305.318 746.375 305.307 754.668 309.965 760.514L444.995 930.016C449.741 935.974 449.629 944.453 444.726 950.283L324.116 1093.7C315.363 1104.11 322.762 1120 336.361 1120H394.592C399.316 1120 403.798 1117.91 406.838 1114.3L544.768 950.283C549.672 944.453 549.784 935.974 545.037 930.016L410.007 760.515Z" fill="#E5E0D4"/>
</g>
<defs>
<clipPath id="clip0_10952_374">
<rect width="553" height="1120" fill="white"/>
</clipPath>
</defs>
</svg>
