<svg width="1999" height="201" viewBox="0 0 1999 201" fill="none" xmlns="http://www.w3.org/2000/svg">
<path d="M88.1919 28.938C92.8525 19.844 102.986 11.6836 113.961 8.10021L114.502 7.91954C118.411 6.65482 122.17 6.02246 125.688 6.02246C129.206 6.02246 140.842 6.86561 141.083 17.6458V18.0975C141.263 25.8364 135.37 35.2013 126.048 42.0067L54.6953 94.071L88.1919 28.9982V28.938Z" fill="#CBCCE8"/>
<path d="M191.057 28.938C195.718 19.844 205.851 11.6836 216.826 8.10021L217.367 7.91954C221.276 6.65482 225.035 6.02246 228.553 6.02246C232.071 6.02246 243.707 6.86561 243.948 17.6458V18.0975C244.128 25.8364 238.235 35.2013 228.914 42.0067L157.561 94.071L191.057 28.9982V28.938Z" fill="#CBCCE8"/>
<path d="M293.952 28.938C298.612 19.844 308.745 11.6836 319.721 8.10021L320.262 7.91954C324.171 6.65482 327.929 6.02246 331.447 6.02246C334.965 6.02246 346.602 6.86561 346.843 17.6458V18.0975C347.023 25.8063 341.13 35.2013 331.808 41.9766L260.455 94.0409L293.952 28.9681V28.938Z" fill="#CBCCE8"/>
<path d="M396.847 28.938C401.508 19.844 411.641 11.6836 422.616 8.10021L423.157 7.91954C427.066 6.65482 430.825 6.02246 434.343 6.02246C437.861 6.02246 449.498 6.86561 449.738 17.6458V18.0975C449.919 25.8364 444.025 35.2013 434.704 42.0067L363.351 94.071L396.847 28.9982V28.938Z" fill="#CBCCE8"/>
<path d="M499.712 28.938C504.373 19.844 514.506 11.6836 525.481 8.10021L526.023 7.91954C529.931 6.65482 533.69 6.02246 537.208 6.02246C540.726 6.02246 552.363 6.86561 552.603 17.6458V18.0975C552.784 25.8364 546.89 35.2013 537.569 42.0067L466.216 94.071L499.712 28.9982V28.938Z" fill="#CBCCE8"/>
<path d="M602.608 28.938C607.269 19.844 617.402 11.6836 628.377 8.10021L628.918 7.91954C632.827 6.65482 636.586 6.02246 640.104 6.02246C643.622 6.02246 655.258 6.86561 655.499 17.6458V18.0975C655.679 25.8063 649.786 35.2013 640.464 41.9766L569.111 94.0409L602.608 28.9681V28.938Z" fill="#CBCCE8"/>
<path d="M705.473 28.938C710.134 19.844 720.267 11.6836 731.242 8.10021L731.783 7.91954C735.692 6.65482 739.451 6.02246 742.969 6.02246C746.487 6.02246 758.124 6.86561 758.364 17.6458V18.0975C758.545 25.8364 752.651 35.2013 743.33 42.0067L671.977 94.071L705.473 28.9982V28.938Z" fill="#CBCCE8"/>
<path d="M808.368 28.938C813.028 19.844 823.161 11.6836 834.137 8.10021L834.678 7.91954C838.587 6.65482 842.345 6.02246 845.863 6.02246C849.381 6.02246 861.018 6.86561 861.259 17.6458V18.0975C861.439 25.8364 855.545 35.2013 846.224 42.0067L774.871 94.071L808.368 28.9982V28.938Z" fill="#CBCCE8"/>
<path d="M911.233 28.938C915.894 19.844 926.027 11.6836 937.002 8.10021L937.543 7.91954C941.452 6.65482 945.211 6.02246 948.729 6.02246C952.247 6.02246 963.883 6.86561 964.124 17.6458V18.0975C964.304 25.8364 958.411 35.2013 949.089 42.0067L877.736 94.071L911.233 28.9982V28.938Z" fill="#CBCCE8"/>
<path d="M1014.13 28.938C1018.79 19.844 1028.92 11.6836 1039.9 8.10021L1040.44 7.91954C1044.35 6.65482 1048.11 6.02246 1051.62 6.02246C1055.14 6.02246 1066.78 6.86561 1067.02 17.6458V18.0975C1067.2 25.8063 1061.31 35.2013 1051.98 41.9766L980.632 94.0409L1014.13 28.9681V28.938Z" fill="#CBCCE8"/>
<path d="M1116.99 28.938C1121.65 19.844 1131.79 11.6836 1142.76 8.10021L1143.3 7.91954C1147.21 6.65482 1150.97 6.02246 1154.49 6.02246C1158.01 6.02246 1169.64 6.86561 1169.88 17.6458V18.0975C1170.07 25.8364 1164.17 35.2013 1154.85 42.0067L1083.5 94.071L1116.99 28.9982V28.938Z" fill="#CBCCE8"/>
<path d="M1219.89 28.938C1224.55 19.844 1234.68 11.6836 1245.66 8.10021L1246.2 7.91954C1250.11 6.65482 1253.87 6.02246 1257.38 6.02246C1260.9 6.02246 1272.54 6.86561 1272.78 17.6458V18.0975C1272.96 25.8364 1267.07 35.2013 1257.75 42.0067L1186.39 94.071L1219.89 28.9982V28.938Z" fill="#CBCCE8"/>
<path d="M1322.78 28.938C1327.44 19.844 1337.58 11.6836 1348.55 8.10021L1349.09 7.91954C1353 6.65482 1356.76 6.02246 1360.28 6.02246C1363.8 6.02246 1375.43 6.86561 1375.67 17.6458V18.0975C1375.86 25.8063 1369.96 35.2013 1360.64 41.9766L1289.29 94.0409L1322.78 28.9681V28.938Z" fill="#CBCCE8"/>
<path d="M1425.65 28.938C1430.31 19.844 1440.44 11.6836 1451.42 8.10021L1451.96 7.91954C1455.87 6.65482 1459.63 6.02246 1463.14 6.02246C1466.66 6.02246 1478.3 6.86561 1478.54 17.6458V18.0975C1478.72 25.8364 1472.83 35.2013 1463.51 42.0067L1392.15 94.071L1425.65 28.9982V28.938Z" fill="#CBCCE8"/>
<path d="M1528.54 28.938C1533.21 19.844 1543.34 11.6836 1554.31 8.10021L1554.85 7.91954C1558.76 6.65482 1562.52 6.02246 1566.04 6.02246C1569.56 6.02246 1581.19 6.86561 1581.44 17.6458V18.0975C1581.62 25.8364 1575.72 35.2013 1566.4 42.0067L1495.05 94.071L1528.54 28.9982V28.938Z" fill="#CBCCE8"/>
<path d="M1631.41 28.938C1636.07 19.844 1646.2 11.6836 1657.18 8.10021L1657.72 7.91954C1661.63 6.65482 1665.39 6.02246 1668.91 6.02246C1672.42 6.02246 1684.06 6.86561 1684.3 17.6458V18.0975C1684.48 25.8364 1678.59 35.2013 1669.27 42.0067L1597.91 94.071L1631.41 28.9982V28.938Z" fill="#CBCCE8"/>
<path d="M1734.31 28.938C1738.97 19.844 1749.1 11.6836 1760.07 8.10021L1760.62 7.91954C1764.52 6.65482 1768.28 6.02246 1771.8 6.02246C1775.32 6.02246 1786.96 6.86561 1787.2 17.6458V18.0975C1787.38 25.8364 1781.48 35.2013 1772.16 42.0067L1700.81 94.071L1734.31 28.9982V28.938Z" fill="#CBCCE8"/>
<path d="M1837.17 28.938C1841.83 19.844 1851.96 11.6836 1862.94 8.10021L1863.48 7.91954C1867.39 6.65482 1871.15 6.02246 1874.67 6.02246C1878.18 6.02246 1889.82 6.86561 1890.06 17.6458V18.0975C1890.24 25.8364 1884.35 35.2013 1875.03 42.0067L1803.67 94.071L1837.17 28.9982V28.938Z" fill="#CBCCE8"/>
<path d="M1940.06 28.938C1944.73 19.844 1954.86 11.6836 1965.83 8.10021L1966.38 7.91954C1970.28 6.65482 1974.04 6.02246 1977.56 6.02246C1981.08 6.02246 1992.72 6.86561 1992.96 17.6458V18.0975C1993.14 25.8364 1987.24 35.2013 1977.92 42.0067L1906.57 94.071L1940.06 28.9982V28.938Z" fill="#CBCCE8"/>
<path d="M125.687 194.978C122.169 194.978 118.411 194.345 114.502 193.081L113.931 192.9C102.955 189.316 92.8523 181.156 88.1616 172.062L54.665 106.989L126.018 159.054C135.339 165.859 141.233 175.224 141.053 182.933V183.384C140.812 194.165 129.175 195.008 125.627 195.008L125.687 194.978Z" fill="#CBCCE8"/>
<path d="M228.582 194.978C225.064 194.978 221.306 194.345 217.397 193.081L216.855 192.9C205.88 189.316 195.777 181.156 191.086 172.062L157.59 106.989L228.943 159.054C238.264 165.829 244.158 175.224 243.977 182.933V183.384C243.737 194.165 232.1 195.008 228.552 195.008L228.582 194.978Z" fill="#CBCCE8"/>
<path d="M331.447 194.978C327.929 194.978 324.171 194.345 320.262 193.081L319.721 192.9C308.745 189.316 298.642 181.156 293.952 172.062L260.455 106.989L331.808 159.054C341.13 165.829 347.023 175.224 346.843 182.933V183.354C346.602 194.134 334.965 194.978 331.417 194.978H331.447Z" fill="#CBCCE8"/>
<path d="M434.343 194.978C430.825 194.978 427.066 194.345 423.157 193.081L422.586 192.9C411.611 189.316 401.508 181.156 396.817 172.062L363.32 106.989L434.673 159.054C443.995 165.859 449.888 175.224 449.708 182.933V183.384C449.467 194.165 437.831 195.008 434.283 195.008L434.343 194.978Z" fill="#CBCCE8"/>
<path d="M537.208 194.978C533.69 194.978 529.931 194.345 526.023 193.081L525.481 192.9C514.506 189.316 504.403 181.156 499.712 172.062L466.216 106.989L537.569 159.054C546.89 165.829 552.784 175.224 552.603 182.933V183.384C552.363 194.165 540.726 195.008 537.178 195.008L537.208 194.978Z" fill="#CBCCE8"/>
<path d="M640.104 194.978C636.586 194.978 632.827 194.345 628.918 193.081L628.377 192.9C617.402 189.316 607.299 181.156 602.608 172.062L569.111 106.989L640.464 159.054C649.786 165.829 655.679 175.224 655.499 182.933V183.354C655.258 194.134 643.622 194.978 640.074 194.978H640.104Z" fill="#CBCCE8"/>
<path d="M742.969 194.978C739.451 194.978 735.692 194.345 731.783 193.081L731.212 192.9C720.237 189.316 710.134 181.156 705.443 172.062L671.946 106.989L743.299 159.054C752.621 165.859 758.514 175.224 758.334 182.933V183.384C758.093 194.165 746.457 195.008 742.909 195.008L742.969 194.978Z" fill="#CBCCE8"/>
<path d="M845.863 194.978C842.345 194.978 838.587 194.345 834.678 193.081L834.137 192.9C823.161 189.316 813.058 181.156 808.368 172.062L774.871 106.989L846.224 159.054C855.545 165.859 861.439 175.224 861.259 182.933V183.384C861.018 194.165 849.381 195.008 845.833 195.008L845.863 194.978Z" fill="#CBCCE8"/>
<path d="M948.759 194.978C945.241 194.978 941.482 194.345 937.573 193.081L937.032 192.9C926.057 189.316 915.954 181.156 911.263 172.062L877.767 106.989L949.12 159.054C958.441 165.829 964.334 175.224 964.154 182.933V183.384C963.913 194.165 952.277 195.008 948.729 195.008L948.759 194.978Z" fill="#CBCCE8"/>
<path d="M1051.62 194.978C1048.11 194.978 1044.35 194.345 1040.44 193.081L1039.9 192.9C1028.92 189.316 1018.82 181.156 1014.13 172.062L980.632 106.989L1051.98 159.054C1061.31 165.829 1067.2 175.224 1067.02 182.933V183.354C1066.78 194.134 1055.14 194.978 1051.59 194.978H1051.62Z" fill="#CBCCE8"/>
<path d="M1154.52 194.978C1151 194.978 1147.24 194.345 1143.33 193.081L1142.76 192.9C1131.79 189.316 1121.68 181.156 1116.99 172.062L1083.5 106.989L1154.85 159.054C1164.17 165.859 1170.07 175.224 1169.88 182.933V183.384C1169.64 194.165 1158.01 195.008 1154.46 195.008L1154.52 194.978Z" fill="#CBCCE8"/>
<path d="M1257.38 194.978C1253.87 194.978 1250.11 194.345 1246.2 193.081L1245.66 192.9C1234.68 189.316 1224.58 181.156 1219.89 172.062L1186.39 106.989L1257.75 159.054C1267.07 165.829 1272.96 175.224 1272.78 182.933V183.384C1272.54 194.165 1260.9 195.008 1257.35 195.008L1257.38 194.978Z" fill="#CBCCE8"/>
<path d="M1360.28 194.978C1356.76 194.978 1353 194.345 1349.09 193.081L1348.55 192.9C1337.58 189.316 1327.47 181.156 1322.78 172.062L1289.29 106.989L1360.64 159.054C1369.96 165.829 1375.86 175.224 1375.67 182.933V183.354C1375.43 194.134 1363.8 194.978 1360.25 194.978H1360.28Z" fill="#CBCCE8"/>
<path d="M1463.15 194.978C1459.63 194.978 1455.87 194.345 1451.96 193.081L1451.39 192.9C1440.41 189.316 1430.31 181.156 1425.62 172.062L1392.12 106.989L1463.48 159.054C1472.8 165.859 1478.69 175.224 1478.51 182.933V183.384C1478.27 194.165 1466.63 195.008 1463.09 195.008L1463.15 194.978Z" fill="#CBCCE8"/>
<path d="M1566.04 194.978C1562.52 194.978 1558.76 194.345 1554.85 193.081L1554.31 192.9C1543.34 189.316 1533.24 181.156 1528.54 172.062L1495.05 106.989L1566.4 159.054C1575.72 165.859 1581.62 175.224 1581.44 182.933V183.384C1581.19 194.165 1569.56 195.008 1566.01 195.008L1566.04 194.978Z" fill="#CBCCE8"/>
<path d="M1668.91 194.978C1665.39 194.978 1661.63 194.345 1657.72 193.081L1657.18 192.9C1646.2 189.316 1636.1 181.156 1631.41 172.062L1597.91 106.989L1669.27 159.054C1678.59 165.829 1684.48 175.224 1684.3 182.933V183.384C1684.06 194.165 1672.42 195.008 1668.88 195.008L1668.91 194.978Z" fill="#CBCCE8"/>
<path d="M1771.8 194.978C1768.28 194.978 1764.52 194.345 1760.62 193.081L1760.07 192.9C1749.1 189.316 1739 181.156 1734.31 172.062L1700.81 106.989L1772.16 159.054C1781.48 165.829 1787.38 175.224 1787.2 182.933V183.384C1786.96 194.165 1775.32 195.008 1771.77 195.008L1771.8 194.978Z" fill="#CBCCE8"/>
<path d="M1874.7 194.978C1871.18 194.978 1867.42 194.345 1863.51 193.081L1862.94 192.9C1851.96 189.316 1841.86 181.156 1837.17 172.062L1803.67 106.989L1875.03 159.054C1884.35 165.859 1890.24 175.224 1890.06 182.933V183.384C1889.82 194.165 1878.18 195.008 1874.64 195.008L1874.7 194.978Z" fill="#CBCCE8"/>
<path d="M1977.56 194.978C1974.04 194.978 1970.28 194.345 1966.38 193.081L1965.83 192.9C1954.86 189.316 1944.76 181.156 1940.06 172.062L1906.57 106.989L1977.92 159.054C1987.24 165.829 1993.14 175.224 1992.96 182.933V183.384C1992.72 194.165 1981.08 195.008 1977.53 195.008L1977.56 194.978Z" fill="#CBCCE8"/>
<path d="M25.8227 113.545C34.4858 111.497 39.851 102.804 37.8064 94.1284C35.7617 85.4528 27.0814 80.0798 18.4183 82.1274C9.75522 84.175 4.38996 92.868 6.43462 101.544C8.47929 110.219 17.1596 115.592 25.8227 113.545Z" fill="#CBCCE8"/>
<path d="M139.88 104.057C143.315 95.834 139.443 86.3789 131.231 82.9389C123.02 79.4989 113.578 83.3768 110.143 91.6003C106.708 99.8238 110.581 109.279 118.792 112.719C127.004 116.159 136.445 112.281 139.88 104.057Z" fill="#CBCCE8"/>
<path d="M242.792 104.06C246.227 95.8369 242.355 86.3818 234.144 82.9418C225.932 79.5019 216.491 83.3797 213.056 91.6032C209.621 99.8267 213.493 109.282 221.704 112.722C229.916 116.162 239.357 112.284 242.792 104.06Z" fill="#CBCCE8"/>
<path d="M342.169 109.254C348.463 102.951 348.463 92.7311 342.169 86.428C335.875 80.1248 325.671 80.1248 319.377 86.428C313.083 92.7311 313.083 102.951 319.377 109.254C325.671 115.557 335.875 115.557 342.169 109.254Z" fill="#CBCCE8"/>
<path d="M437.328 113.574C445.994 111.538 451.371 102.853 449.339 94.1746C447.306 85.4961 438.633 80.1109 429.967 82.1464C421.301 84.1819 415.924 92.8673 417.957 101.546C419.989 110.224 428.662 115.609 437.328 113.574Z" fill="#CBCCE8"/>
<path d="M551.458 104.066C554.893 95.8428 551.021 86.3877 542.81 82.9477C534.598 79.5077 525.157 83.3855 521.722 91.609C518.287 99.8326 522.159 109.288 530.37 112.728C538.582 116.168 548.023 112.29 551.458 104.066Z" fill="#CBCCE8"/>
<path d="M654.329 104.066C657.764 95.8428 653.892 86.3877 645.681 82.9477C637.469 79.5077 628.028 83.3855 624.593 91.609C621.158 99.8326 625.03 109.288 633.241 112.728C641.453 116.168 650.894 112.29 654.329 104.066Z" fill="#CBCCE8"/>
<path d="M753.725 109.248C760.019 102.945 760.019 92.7252 753.725 86.4221C747.431 80.119 737.226 80.1189 730.932 86.4221C724.638 92.7252 724.638 102.945 730.932 109.248C737.226 115.551 747.431 115.551 753.725 109.248Z" fill="#CBCCE8"/>
<path d="M848.86 113.63C857.526 111.594 862.904 102.909 860.871 94.2302C858.838 85.5517 850.165 80.1666 841.5 82.2021C832.834 84.2376 827.456 92.923 829.489 101.601C831.521 110.28 840.194 115.665 848.86 113.63Z" fill="#CBCCE8"/>
<path d="M962.994 104.069C966.429 95.8457 962.557 86.3906 954.346 82.9506C946.134 79.5107 936.693 83.3885 933.258 91.612C929.823 99.8355 933.695 109.291 941.906 112.731C950.118 116.171 959.559 112.293 962.994 104.069Z" fill="#CBCCE8"/>
<path d="M1065.86 104.098C1069.3 95.875 1065.43 86.4199 1057.22 82.9799C1049 79.5399 1039.56 83.4177 1036.13 91.6412C1032.69 99.8647 1036.57 109.32 1044.78 112.76C1052.99 116.2 1062.43 112.322 1065.86 104.098Z" fill="#CBCCE8"/>
<path d="M1157.54 113.589C1166.2 111.541 1171.56 102.848 1169.52 94.1724C1167.47 85.4968 1158.79 80.1237 1150.13 82.1713C1141.47 84.219 1136.1 92.9119 1138.15 101.588C1140.19 110.263 1148.87 115.636 1157.54 113.589Z" fill="#CBCCE8"/>
<path d="M1271.61 104.005C1275.02 95.7695 1271.11 86.3281 1262.89 82.9168C1254.66 79.5056 1245.24 83.4163 1241.83 91.6518C1238.42 99.8873 1242.33 109.329 1250.55 112.74C1258.78 116.151 1268.2 112.24 1271.61 104.005Z" fill="#CBCCE8"/>
<path d="M1374.48 104.017C1377.89 95.7813 1373.98 86.3398 1365.76 82.9285C1357.54 79.5173 1348.11 83.4281 1344.7 91.6635C1341.29 99.899 1345.2 109.341 1353.42 112.752C1361.65 116.163 1371.07 112.252 1374.48 104.017Z" fill="#CBCCE8"/>
<path d="M1473.9 109.251C1480.19 102.948 1480.19 92.7282 1473.9 86.425C1467.6 80.1219 1457.4 80.1218 1451.11 86.425C1444.81 92.7281 1444.81 102.948 1451.11 109.251C1457.4 115.554 1467.6 115.554 1473.9 109.251Z" fill="#CBCCE8"/>
<path d="M1569.06 113.624C1577.72 111.576 1583.09 102.883 1581.04 94.2075C1579 85.5319 1570.32 80.1588 1561.65 82.2065C1552.99 84.2541 1547.62 92.9471 1549.67 101.623C1551.71 110.298 1560.39 115.671 1569.06 113.624Z" fill="#CBCCE8"/>
<path d="M1683.14 103.999C1686.55 95.7638 1682.65 86.3223 1674.42 82.9111C1666.2 79.4998 1656.77 83.4106 1653.36 91.646C1649.96 99.8815 1653.86 109.323 1662.09 112.734C1670.31 116.145 1679.74 112.235 1683.14 103.999Z" fill="#CBCCE8"/>
<path d="M1786.01 104.011C1789.42 95.7753 1785.52 86.3338 1777.29 82.9226C1769.07 79.5114 1759.64 83.4221 1756.23 91.6576C1752.83 99.893 1756.73 109.335 1764.96 112.746C1773.18 116.157 1782.61 112.246 1786.01 104.011Z" fill="#CBCCE8"/>
<path d="M1885.4 109.236C1891.7 102.933 1891.7 92.7136 1885.4 86.4104C1879.11 80.1073 1868.91 80.1073 1862.61 86.4104C1856.32 92.7136 1856.32 102.933 1862.61 109.236C1868.91 115.539 1879.11 115.539 1885.4 109.236Z" fill="#CBCCE8"/>
<path d="M1980.58 113.63C1989.24 111.582 1994.61 102.889 1992.56 94.2134C1990.52 85.5378 1981.84 80.1647 1973.17 82.2124C1964.51 84.26 1959.15 92.9529 1961.19 101.629C1963.24 110.304 1971.92 115.677 1980.58 113.63Z" fill="#CBCCE8"/>
</svg>
