<svg width="2033" height="194" viewBox="0 0 2033 194" fill="none" xmlns="http://www.w3.org/2000/svg">
<g clip-path="url(#clip0_10952_836)">
<path d="M500.487 146.903V0H311.928V94.177H358.381V42.312H453.788H459.159V193.602H639.518V94.177H583.963V146.903H500.487Z" fill="#E90130"/>
<path d="M722.092 146.903V0H531.278V94.177H583.963V42.312H688.8V193.602H867.683V94.177H817.499V146.903H722.092Z" fill="#E90130"/>
<path d="M1982.14 94.177V146.903H1886.74V0H1695.92V94.177H1748.53V146.903H1653.08V0H1610.23H1472.51H1462.26V94.177H1472.51H1514.83V146.903H1419.42V0H1368.58H1232.46H1228.61V94.177H1232.46H1281.99V146.903H1186.58V0H995.767V94.177H1045.09V42.312H1141.73V193.602H1156.49H1335.29H1336.85V94.177H1335.29H1284.73V42.312H1368.58H1380.26V193.602H1571V94.177H1514.95V42.312H1610.23H1619.79V193.602H1798.71V94.177H1748.57V42.312H1853.45V193.602H2032.33V94.177H1982.14Z" fill="#E90130"/>
<path d="M262.974 146.903V0H72.1602V94.177H128.289V42.312H223.778V193.602H414.51V94.177H358.381V146.903H262.974Z" fill="#E90130"/>
<path d="M0 146.903V193.602H184.459V94.1768H128.289V146.903H0Z" fill="#E90130"/>
<path d="M955.792 146.903V0H767.889V94.177H817.499V42.312H912.906H915.694L914.792 193.602H1099.29V94.177H1045.09V146.903H955.792Z" fill="#E90130"/>
</g>
<defs>
<clipPath id="clip0_10952_836">
<rect width="2032.33" height="193.602" fill="white"/>
</clipPath>
</defs>
</svg>
