<svg width="411" height="1116" viewBox="0 0 411 1116" fill="none" xmlns="http://www.w3.org/2000/svg">
<path d="M389.934 100.092L276.67 5.78758C272.178 2.04782 266.518 0 260.674 0H0V1116H258.811C265.766 1116 272.407 1113.1 277.138 1108L394.606 981.391C403.755 971.53 403.461 956.196 393.94 946.693L287.451 840.404C277.664 830.636 277.666 814.778 287.455 805.012L393.264 699.452C403.053 689.685 403.055 673.827 393.268 664.059L287.445 558.435C277.66 548.669 277.66 532.815 287.444 523.048L393.276 417.398C403.06 407.632 403.06 391.779 393.276 382.012L287.442 276.361C277.659 266.595 277.659 250.742 287.442 240.975L391.6 136.997C402.014 126.602 401.242 109.507 389.934 100.092Z" fill="#FF9BAD"/>
</svg>
