<svg width="220" height="217" viewBox="0 0 220 217" fill="none" xmlns="http://www.w3.org/2000/svg">
<path d="M219.859 103.039H133.214L211.279 65.4456L206.659 55.8756L128.594 93.4692L182.622 25.7268L174.306 19.1004L120.292 86.8428L139.564 2.3628L129.215 0L109.93 84.48L90.6444 0L80.2824 2.3628L99.5676 86.8428L45.54 19.1004L37.2372 25.7268L91.2516 93.4692L13.1868 55.8756L8.58 65.4456L86.6448 103.039H0V113.665H86.6448L8.58 151.259L13.1868 160.842L91.2516 123.248L37.2372 190.991L45.54 197.617L99.5676 129.875L80.2824 214.342L90.6444 216.704L109.93 132.238L129.215 216.704L139.564 214.342L120.292 129.875L174.306 197.617L182.622 190.991L128.594 123.248L206.659 160.842L211.279 151.259L133.214 113.665H219.859V103.039Z" fill="#999999"/>
</svg>
