<svg width="220" height="220" viewBox="0 0 220 220" fill="none" xmlns="http://www.w3.org/2000/svg">
<path d="M117.853 164.812V219.751H101.92V164.812H117.853ZM171.716 201.065L157.918 209.031L130.449 161.453L144.247 153.487L171.716 201.065ZM89.3076 161.446L61.8389 209.024L48.041 201.059L75.5098 153.48L89.3076 161.446ZM209.021 157.935L201.055 171.732L153.477 144.264L161.442 130.466L209.021 157.935ZM66.292 144.239L18.7139 171.708L10.748 157.91L58.3262 130.441L66.292 144.239ZM54.9385 117.849H0V101.916H54.9385V117.849ZM219.755 117.849H164.816V101.916H219.755V117.849ZM66.2861 75.5107L58.3203 89.3086L10.7422 61.8398L18.708 48.042L66.2861 75.5107ZM209.017 61.8311L161.438 89.2998L153.473 75.502L201.051 48.0332L209.017 61.8311ZM171.731 18.7158L144.263 66.2939L130.465 58.3281L157.934 10.75L171.731 18.7158ZM89.3037 58.3076L75.5059 66.2734L48.0371 18.6953L61.835 10.7295L89.3037 58.3076ZM117.853 54.9385H101.92V0H117.853V54.9385Z" fill="#E5E0D4"/>
</svg>
